<?xml version="1.0" standalone="no"?>
<!DOCTYPE svg PUBLIC "-//W3C//DTD SVG 20010904//EN"
 "http://www.w3.org/TR/2001/REC-SVG-20010904/DTD/svg10.dtd">
<svg version="1.0" xmlns="http://www.w3.org/2000/svg"
 width="389.000000pt" height="389.000000pt" viewBox="0 0 389.000000 389.000000"
 preserveAspectRatio="xMidYMid meet">
<metadata>
Created by potrace 1.11, written by Peter Selinger 2001-2013
</metadata>
<g transform="translate(0.000000,389.000000) scale(0.100000,-0.100000)"
fill="#000000" stroke="none">
<path d="M1965 3627 c-19 -15 -22 -34 -26 -182 -3 -101 4 -131 31 -140 28 -9
69 5 75 25 3 10 8 73 10 141 4 98 1 128 -10 146 -17 26 -52 30 -80 10z"/>
<path d="M1452 3540 c-12 -12 -22 -28 -21 -38 0 -9 19 -69 43 -132 33 -88 50
-118 69 -130 24 -13 28 -13 54 6 15 12 28 30 27 40 -1 11 -21 72 -45 136 -33
89 -49 119 -67 127 -31 15 -35 14 -60 -9z"/>
<path d="M2438 3513 c-20 -24 -108 -229 -108 -252 0 -51 80 -67 106 -21 38 67
97 208 97 233 1 49 -64 76 -95 40z"/>
<path d="M166 3038 c-55 -8 -104 -42 -136 -93 l-22 -36 0 -1002 c0 -1082 -2
-1039 51 -1094 49 -52 67 -55 316 -55 l232 0 5 -63 c6 -74 31 -121 80 -150 32
-19 53 -20 499 -20 l466 0 -1 -30 0 -30 61 1 c46 1 76 9 120 30 52 26 68 29
151 29 l94 0 18 -54 c43 -122 138 -198 258 -208 l58 -5 -1 133 0 134 680 0
c651 0 681 1 712 20 18 10 42 33 55 49 l23 31 3 904 c3 900 2 904 -18 947 -33
66 -72 86 -192 94 -4 0 -6 73 -6 163 1 177 -6 209 -56 259 -15 15 -43 32 -63
39 -38 12 -3300 20 -3387 7z"/>
</g>
</svg>
